<?xml version="1.0" encoding="utf-8"?>
<!-- Generator: Adobe Illustrator 16.0.0, SVG Export Plug-In . SVG Version: 6.00 Build 0)  -->
<!DOCTYPE svg PUBLIC "-//W3C//DTD SVG 1.1//EN" "http://www.w3.org/Graphics/SVG/1.1/DTD/svg11.dtd">
<svg version="1.1" id="Capa_1" xmlns="http://www.w3.org/2000/svg" xmlns:xlink="http://www.w3.org/1999/xlink" x="0px" y="0px"
	 width="194.792px" height="57.292px" viewBox="0 0 194.792 57.292" enable-background="new 0 0 194.792 57.292"
	 xml:space="preserve">
<g>
	<defs>
		<rect id="SVGID_1_" x="6.625" y="10.122" width="176.608" height="38.837"/>
	</defs>
	<clipPath id="SVGID_2_">
		<use xlink:href="#SVGID_1_"  overflow="visible"/>
	</clipPath>
	<path clip-path="url(#SVGID_2_)" fill="#33A0B6" d="M22.713,25.409c0.312,0.114,0.658-0.047,0.771-0.36
		c0.114-0.312-0.048-0.658-0.36-0.771c-0.313-0.113-0.659,0.048-0.771,0.36C22.239,24.95,22.4,25.296,22.713,25.409"/>
	<path clip-path="url(#SVGID_2_)" fill="#AB6829" d="M15.595,43.092l-0.146-1.731l-0.176,0.008
		c-0.035,0.158-0.078,0.317-0.134,0.474c-0.61,1.674-3.949,2.853-3.949,2.853s-1.8-3.049-1.19-4.723
		c0.057-0.158,0.126-0.306,0.2-0.45l-0.128-0.118l-1.224,1.232c-0.236,0.238-0.595,0.3-0.961,0.206
		c-0.066,0.143-0.126,0.291-0.182,0.441c-0.991,2.721,1.934,7.675,1.934,7.675s5.425-1.915,6.416-4.635
		c0.054-0.152,0.103-0.304,0.145-0.456C15.858,43.704,15.623,43.426,15.595,43.092"/>
	<path clip-path="url(#SVGID_2_)" fill="#E0A822" d="M10.201,39.523c-0.074,0.144-0.143,0.292-0.2,0.45
		c-0.61,1.674,1.19,4.723,1.19,4.723s3.338-1.179,3.949-2.854c0.056-0.157,0.099-0.315,0.134-0.473
		c-0.898,0.032-1.819-0.103-2.716-0.429C11.66,40.614,10.869,40.125,10.201,39.523"/>
	<path clip-path="url(#SVGID_2_)" fill="#157AAB" d="M22.17,33.473c-0.181-0.066-0.362-0.131-0.542-0.197l-0.148-0.053
		c-3.595-1.31-7.192-2.619-10.788-3.928l-0.149-0.054c-0.18-0.065-0.36-0.131-0.541-0.197c-0.751,0.73-1.354,1.635-1.736,2.687
		c-0.661,1.813-0.543,3.72,0.18,5.357c0.262,0.598,0.606,1.158,1.022,1.667c0.188,0.228,0.391,0.446,0.607,0.652l0.129,0.119
		c0.668,0.603,1.459,1.091,2.357,1.417c0.897,0.327,1.816,0.461,2.716,0.429l0.175-0.009c0.299-0.018,0.593-0.055,0.884-0.108
		c0.646-0.122,1.27-0.331,1.855-0.619c1.606-0.79,2.922-2.175,3.582-3.989C22.155,35.596,22.275,34.515,22.17,33.473"/>
	<path clip-path="url(#SVGID_2_)" fill="#155981" d="M23.896,32.498c-0.062-0.022-14.535-5.29-14.596-5.312
		c-0.186-0.068-0.385-0.003-0.437,0.141c-0.109,0.295-0.216,0.59-0.323,0.885c-0.053,0.145,0.059,0.322,0.244,0.39
		c0.47,0.171,2.028,0.738,2.077,0.755c3.481,1.268,12.051,4.386,12.52,4.557c0.101,0.037,0.187,0.037,0.257,0.014l0.013-0.004
		l0.011-0.003c0.071-0.023,0.13-0.068,0.158-0.146c0.107-0.296,0.214-0.59,0.322-0.886C24.193,32.743,24.082,32.566,23.896,32.498"
		/>
	<path clip-path="url(#SVGID_2_)" fill="#94C7D5" d="M23.518,10.827c-6.036-2.197-12.709,0.915-14.906,6.95
		c-1.168,3.207-0.834,6.591,0.64,9.391c1.042,0.38,2.084,0.759,3.127,1.139c0.179,0.065,0.358,0.13,0.538,0.196
		c-0.084-0.094-0.166-0.19-0.247-0.287c-0.102-0.123-0.201-0.248-0.295-0.375c-1.611-2.189-2.132-5.117-1.134-7.863
		c1.588-4.362,6.413-6.612,10.775-5.024c4.363,1.588,6.612,6.412,5.024,10.775c-0.999,2.746-3.281,4.653-5.922,5.295
		c-0.154,0.038-0.311,0.069-0.467,0.098c-0.124,0.022-0.249,0.043-0.375,0.061c0.179,0.066,0.359,0.131,0.539,0.196
		c1.042,0.379,2.085,0.759,3.127,1.138c2.927-1.197,5.358-3.575,6.525-6.782C32.667,19.697,29.554,13.023,23.518,10.827"/>
	<path clip-path="url(#SVGID_2_)" fill="#94C7D5" d="M14.762,22.516c-0.312-0.114-0.474-0.459-0.36-0.771
		c0.113-0.313,0.46-0.474,0.772-0.36c0.312,0.113,0.474,0.459,0.359,0.772C15.419,22.468,15.074,22.629,14.762,22.516 M15.67,20.017
		c-1.082-0.395-2.275,0.151-2.664,1.219c-0.389,1.067,0.175,2.252,1.258,2.646c1.082,0.395,2.275-0.151,2.663-1.219
		C17.316,21.595,16.754,20.411,15.67,20.017"/>
	<path clip-path="url(#SVGID_2_)" fill="#94C7D5" d="M22.353,24.638c0.113-0.312,0.458-0.473,0.771-0.36
		c0.312,0.114,0.474,0.459,0.36,0.771c-0.113,0.313-0.459,0.473-0.771,0.359C22.4,25.295,22.239,24.95,22.353,24.638 M24.879,25.558
		c0.389-1.068-0.174-2.253-1.258-2.647c-1.083-0.394-2.276,0.151-2.665,1.219c-0.388,1.067,0.175,2.252,1.258,2.646
		C23.298,27.171,24.492,26.625,24.879,25.558"/>
	<path clip-path="url(#SVGID_2_)" fill="#33A0B6" d="M8.442,37.086l-1.574,1.585c-0.407,0.408-0.291,1.181,0.255,1.724
		c0.228,0.228,0.498,0.377,0.763,0.447c0.366,0.094,0.726,0.032,0.961-0.205l1.224-1.232c-0.216-0.206-0.419-0.424-0.606-0.652
		C9.048,38.245,8.705,37.684,8.442,37.086"/>
	<path clip-path="url(#SVGID_2_)" fill="#33A0B6" d="M18.188,40.633c-0.586,0.289-1.21,0.497-1.855,0.618
		c-0.291,0.055-0.585,0.092-0.883,0.11l0.145,1.731c0.028,0.333,0.263,0.612,0.605,0.775c0.248,0.118,0.55,0.176,0.872,0.15
		c0.768-0.065,1.351-0.583,1.303-1.157L18.188,40.633z"/>
	<path clip-path="url(#SVGID_2_)" fill="#33A0B6" d="M15.67,20.017c1.083,0.394,1.646,1.579,1.258,2.646
		c-0.388,1.067-1.581,1.613-2.663,1.219c-1.083-0.395-1.647-1.58-1.258-2.647C13.395,20.168,14.588,19.623,15.67,20.017
		 M23.622,22.911c1.083,0.394,1.646,1.579,1.257,2.647c-0.388,1.066-1.582,1.612-2.665,1.218c-1.083-0.394-1.646-1.579-1.257-2.646
		C21.346,23.062,22.539,22.517,23.622,22.911 M12.375,27.839c0.094,0.128,0.193,0.253,0.294,0.375
		c0.081,0.097,0.163,0.193,0.248,0.288c0.178,0.064,0.356,0.129,0.534,0.194c2.098,0.764,4.195,1.527,6.292,2.291
		c0.179,0.064,0.355,0.129,0.534,0.194c0.125-0.018,0.25-0.039,0.375-0.061c0.156-0.029,0.313-0.06,0.467-0.099
		c2.642-0.642,4.923-2.548,5.922-5.294c1.587-4.363-0.661-9.187-5.024-10.775s-9.187,0.662-10.775,5.024
		C10.243,22.723,10.764,25.65,12.375,27.839"/>
	<path clip-path="url(#SVGID_2_)" fill="#33A0B6" d="M14.762,22.516c0.312,0.114,0.657-0.048,0.772-0.359
		c0.114-0.312-0.047-0.659-0.36-0.772c-0.312-0.114-0.659,0.046-0.772,0.36C14.288,22.056,14.45,22.402,14.762,22.516"/>
	<path clip-path="url(#SVGID_2_)" fill="#FFFFFF" d="M14.425,35.814c0.314,0.114,0.476,0.459,0.361,0.771
		c-0.113,0.312-0.459,0.474-0.772,0.36c-0.312-0.113-0.473-0.459-0.359-0.771C13.769,35.862,14.115,35.701,14.425,35.814"/>
	<path clip-path="url(#SVGID_2_)" fill="#FFFFFF" d="M15.152,33.822c0.312,0.114,0.473,0.459,0.359,0.772
		c-0.114,0.313-0.459,0.474-0.771,0.359c-0.314-0.113-0.475-0.459-0.361-0.771C14.494,33.87,14.839,33.709,15.152,33.822"/>
	<path clip-path="url(#SVGID_2_)" fill="#FFFFFF" d="M15.877,31.831c0.312,0.113,0.474,0.459,0.36,0.771
		c-0.114,0.312-0.46,0.474-0.772,0.36c-0.313-0.114-0.474-0.459-0.359-0.772C15.219,31.878,15.564,31.717,15.877,31.831"/>
	<path clip-path="url(#SVGID_2_)" fill="#153953" d="M183.233,44.446v-0.654c0-2.703-1.526-3.575-3.183-4.12l-1.853-0.61
		c-0.763-0.262-1.286-0.654-1.286-1.373v-0.327c0-1.046,0.567-1.591,2.071-1.591c1.417,0,3.619,0.349,3.619,0.349
		c0.262,0.022,0.414-0.109,0.414-0.349v-1.918c0-0.24-0.174-0.393-0.414-0.414c0,0-1.983-0.392-3.662-0.392
		c-2.725,0-4.97,1.221-4.97,4.316v0.545c0,2.289,1.221,3.335,2.769,3.836l1.853,0.611c0.959,0.327,1.701,0.697,1.701,1.657v0.436
		c0,1.264-0.632,1.787-2.289,1.787c-1.242,0-3.706-0.479-3.706-0.479c-0.262-0.044-0.436,0.087-0.436,0.327v1.984
		c0,0.24,0.174,0.392,0.414,0.414c0,0,2.18,0.479,3.902,0.479C181.532,48.958,183.233,47.847,183.233,44.446 M168.955,37.95
		c0,1.591-0.894,2.07-2.463,2.07h-1.896v-4.142h1.962C168.126,35.879,168.955,36.358,168.955,37.95 M172.29,48.305l-3.509-5.886
		c1.962-0.501,3.117-1.897,3.117-4.469c0-3.335-1.875-4.687-5.014-4.687h-4.817c-0.24,0-0.414,0.174-0.414,0.414v14.649
		c0,0.24,0.174,0.414,0.414,0.414h2.115c0.24,0,0.414-0.174,0.414-0.414v-5.69h1.068l3.378,5.69
		c0.131,0.196,0.284,0.414,0.523,0.414h2.485C172.29,48.74,172.421,48.5,172.29,48.305 M159.036,43.073v-9.396
		c0-0.24-0.174-0.414-0.414-0.414h-2.114c-0.24,0-0.415,0.174-0.415,0.414v9.396c0,1.81-0.545,3.161-2.398,3.161
		c-1.853,0-2.398-1.351-2.398-3.161v-9.396c0-0.24-0.174-0.414-0.414-0.414h-2.115c-0.24,0-0.414,0.174-0.414,0.414v9.396
		c0,4.164,1.94,5.886,5.341,5.886C157.096,48.958,159.036,47.236,159.036,43.073 M146.284,48.327V46.43
		c0-0.24-0.174-0.414-0.414-0.414h-5.472v-3.814h5.036c0.24,0,0.414-0.175,0.414-0.415V39.89c0-0.24-0.174-0.414-0.414-0.414h-5.036
		v-3.488h5.472c0.24,0,0.414-0.175,0.414-0.415v-1.896c0-0.24-0.174-0.414-0.414-0.414h-8c-0.24,0-0.414,0.174-0.414,0.414v14.649
		c0,0.24,0.174,0.414,0.414,0.414h8C146.109,48.74,146.284,48.566,146.284,48.327 M134.839,48.327V33.677
		c0-0.24-0.174-0.414-0.414-0.414h-2.114c-0.24,0-0.415,0.174-0.415,0.414v8.829l-4.578-8.829c-0.109-0.218-0.218-0.414-0.545-0.414
		h-2.202c-0.24,0-0.414,0.174-0.414,0.414v14.649c0,0.24,0.174,0.414,0.414,0.414h2.114c0.24,0,0.414-0.174,0.414-0.414v-8.829
		l4.578,8.829c0.109,0.218,0.262,0.414,0.545,0.414h2.202C134.665,48.74,134.839,48.566,134.839,48.327 M121.979,48.327V46.43
		c0-0.24-0.174-0.414-0.414-0.414h-5.472v-3.814h5.036c0.24,0,0.414-0.175,0.414-0.415V39.89c0-0.24-0.174-0.414-0.414-0.414h-5.036
		v-3.488h5.472c0.24,0,0.414-0.175,0.414-0.415v-1.896c0-0.24-0.174-0.414-0.414-0.414h-8c-0.24,0-0.414,0.174-0.414,0.414v14.649
		c0,0.24,0.174,0.414,0.414,0.414h8C121.804,48.74,121.979,48.566,121.979,48.327 M107.809,37.95c0,1.591-0.894,2.07-2.463,2.07
		h-1.896v-4.142h1.962C106.981,35.879,107.809,36.358,107.809,37.95 M111.145,48.305l-3.51-5.886
		c1.962-0.501,3.117-1.897,3.117-4.469c0-3.335-1.875-4.687-5.013-4.687h-4.818c-0.24,0-0.415,0.174-0.415,0.414v14.649
		c0,0.24,0.174,0.414,0.415,0.414h2.114c0.24,0,0.414-0.174,0.414-0.414v-5.69h1.068l3.379,5.69c0.13,0.196,0.283,0.414,0.523,0.414
		h2.485C111.145,48.74,111.275,48.5,111.145,48.305 M95.166,37.95c0,1.526-0.807,2.07-2.398,2.07h-1.962v-4.142h1.962
		C94.359,35.879,95.166,36.424,95.166,37.95 M98.109,37.95c0-3.466-1.984-4.687-5.123-4.687h-4.708c-0.24,0-0.414,0.174-0.414,0.414
		v14.649c0,0.24,0.174,0.414,0.414,0.414h2.115c0.24,0,0.414-0.174,0.414-0.414v-5.69h2.18
		C96.125,42.637,98.109,41.416,98.109,37.95 M82.305,43.073c0,1.81-0.544,3.161-2.398,3.161c-1.853,0-2.397-1.351-2.397-3.161
		v-4.142c0-1.81,0.545-3.161,2.397-3.161c1.854,0,2.398,1.352,2.398,3.161V43.073z M85.248,43.291v-4.578
		c0-3.619-1.853-5.667-5.341-5.667c-3.488,0-5.34,2.049-5.34,5.667v4.578c0,3.619,1.853,5.668,5.34,5.668
		C83.395,48.958,85.248,46.909,85.248,43.291 M69.444,37.95c0,1.591-0.894,2.07-2.463,2.07h-1.897v-4.142h1.962
		C68.615,35.879,69.444,36.358,69.444,37.95 M72.779,48.305l-3.509-5.886c1.962-0.501,3.117-1.897,3.117-4.469
		c0-3.335-1.875-4.687-5.014-4.687h-4.817c-0.24,0-0.415,0.174-0.415,0.414v14.649c0,0.24,0.175,0.414,0.415,0.414h2.114
		c0.24,0,0.414-0.174,0.414-0.414v-5.69h1.068l3.379,5.69c0.131,0.196,0.283,0.414,0.523,0.414h2.485
		C72.779,48.74,72.91,48.5,72.779,48.305 M60.179,35.574v-1.896c0-0.24-0.174-0.414-0.414-0.414h-9.853
		c-0.24,0-0.415,0.174-0.415,0.414v1.896c0,0.24,0.175,0.415,0.415,0.415h3.466v12.338c0,0.24,0.174,0.414,0.414,0.414h2.114
		c0.24,0,0.415-0.174,0.415-0.414V35.988h3.444C60.005,35.988,60.179,35.813,60.179,35.574 M47.863,44.446v-0.654
		c0-2.703-1.526-3.575-3.183-4.12l-1.853-0.61c-0.763-0.262-1.286-0.654-1.286-1.373v-0.327c0-1.046,0.567-1.591,2.071-1.591
		c1.417,0,3.619,0.349,3.619,0.349c0.262,0.022,0.415-0.109,0.415-0.349v-1.918c0-0.24-0.174-0.393-0.415-0.414
		c0,0-1.983-0.392-3.662-0.392c-2.725,0-4.97,1.221-4.97,4.316v0.545c0,2.289,1.221,3.335,2.769,3.836l1.853,0.611
		c0.959,0.327,1.7,0.697,1.7,1.657v0.436c0,1.264-0.632,1.787-2.289,1.787c-1.243,0-3.706-0.479-3.706-0.479
		c-0.262-0.044-0.436,0.087-0.436,0.327v1.984c0,0.24,0.174,0.392,0.414,0.414c0,0,2.18,0.479,3.902,0.479
		C46.163,48.958,47.863,47.847,47.863,44.446 M32.756,43.4H29.29l1.744-6.278L32.756,43.4z M37.269,48.305l-4.316-14.627
		c-0.065-0.24-0.262-0.414-0.501-0.414h-2.855c-0.24,0-0.436,0.174-0.501,0.414l-4.316,14.627c-0.065,0.24,0.065,0.436,0.305,0.436
		h2.376c0.24,0,0.393-0.174,0.458-0.414l0.61-2.202h4.992l0.61,2.202c0.065,0.24,0.218,0.414,0.458,0.414h2.376
		C37.203,48.74,37.334,48.544,37.269,48.305"/>
</g>
</svg>
